<?xml version="1.0" encoding="UTF-8"?>
<svg id="katman_1" data-name="katman 1" xmlns="http://www.w3.org/2000/svg" viewBox="0 0 474.64 209.59">
  <defs>
    <style>
      .cls-1 {
        font-family: EmbassyBT-Regular, 'Embassy BT';
        font-size: 30.28px;
      }

      .cls-1, .cls-2, .cls-3 {
        fill: #e30613;
      }

      .cls-4 {
        fill: #1d1d1b;
      }

      .cls-5, .cls-6 {
        fill: #0d0802;
      }

      .cls-5, .cls-3 {
        fill-rule: evenodd;
      }
    </style>
  </defs>
  <path class="cls-6" d="M38.46,111.57h-4.52v-1.13c0-3.87-.03-7.73.02-11.6,0-.78-.22-1.18-1.11-1.17-2.28,0-4.56.01-6.84,0-.85,0-1.04.4-1.04,1.13.02,7.67.01,15.34.01,23.01,0,6.46.02,12.91-.02,19.37,0,.92.23,1.41,1.3,1.4,2.25-.02,4.49-.04,6.74-.06.66,0,.95-.26.95-.92-.02-6.21-.02-12.41,0-18.62,0-.65-.3-.78-.92-.77-1.37.03-2.73-.02-4.1.02-.64.02-.84-.21-.82-.76.03-.93.03-1.87,0-2.81-.01-.52.19-.71.77-.71,2.94.02,5.87.03,8.81,0,.93-.01.84.49.84,1.03,0,6.46,0,12.91,0,19.37,0,2.18-.02,4.37.01,6.55,0,.57-.19.83-.79.99-5.56,1.46-11.12,1.42-16.66-.05-.29-.08-.64-.54-.66-.84-.08-1.12-.03-2.24-.03-3.37,0-15.34,0-30.69-.02-46.03,0-.86.31-1.21,1.17-1.41,5.38-1.25,10.74-1.28,16.09.1.53.14.91.28.91.91-.02,5.27-.01,10.54-.02,15.81,0,.15-.04.3-.08.56"/>
  <path class="cls-2" d="M40.7,95.21c1.5.77,2.86,1.41,4.14,2.15.3.17.42.68.52,1.06,2.45,9.27,4.89,18.55,7.33,27.83.05.17.1.34.26.5,2.26-6.78,1.24-13.17-3.04-19.36,1.83,0,3.45-.04,5.06.04.29.02.62.53.8.87,3.32,6.39,3.87,12.99,1.65,19.77-1.13,3.45-3.02,6.54-5.54,9.31-.17.19-.36.38-.55.56-.04.04-.12.04-.29.09-1.89-7.2-3.78-14.4-5.66-21.59-.06,0-.12.01-.18.02,0,.51,0,1.03,0,1.54,0,7.92-.02,15.85.02,23.77,0,.73-.25,1.16-.93,1.47-1.15.53-2.27,1.09-3.56,1.72v-49.74Z"/>
  <path class="cls-2" d="M18.17,144.54c-6.62-2.67-11.52-6.77-14.93-12.71,1.83,0,3.42-.03,5,.03.27.01.56.4.79.65,1.43,1.53,2.85,3.07,4.27,4.61.1-.06.2-.11.3-.17v-15.09H.36c-2.45-9.33,7.97-24.9,17.81-26.74v12.54h-4.44v-5.07c-3.64,1.2-9.02,10.44-8.78,15.06h13.21v26.9Z"/>
  <path class="cls-5" d="M300.54,37.8c-.71-4.58-1.89-8.91-3.48-12.91,8.64,4.39,14.76,10.62,16.81,17.72-3.02-1.95-7.68-3.56-13.34-4.81M250.85,5.37c-5.11,3.68-9.48,9.06-12.71,15.61-6.96,3.03-12.69,7.14-16.6,11.95,4.81-12.84,15.65-23.03,29.3-27.56ZM295.33,20.98c-3.22-6.55-7.6-11.93-12.7-15.61,13.65,4.53,24.49,14.72,29.3,27.56-3.91-4.81-9.63-8.92-16.6-11.95ZM261.14,3.54c-2.07,2.84-3.78,7.23-5.12,12.54-4.87.67-9.47,1.78-13.72,3.27,4.67-8.13,11.29-13.88,18.83-15.81ZM277.45,16.08c-1.33-5.32-3.04-9.7-5.12-12.54,7.54,1.93,14.16,7.69,18.83,15.81-4.24-1.49-8.85-2.6-13.72-3.27ZM266.74,2.82c2.4,0,5.3,4.6,7.53,12.89-2.46-.24-4.97-.36-7.53-.36s-5.07.12-7.53.36c2.24-8.3,5.13-12.89,7.53-12.89ZM216.39,40.9l4.56-1.71c2.8-5.67,8.25-10.63,15.47-14.3-1.19,3.01-2.16,6.22-2.87,9.58l3.34-1.25c.87-3.61,2.05-7.01,3.5-10.14,4.51-1.85,9.56-3.24,14.96-4.06-.56,2.66-1.04,5.5-1.43,8.45.13.03.27.06.4.11.62-.29,1.3-.45,2.01-.45.21,0,.42.02.63.05.43-3.13.95-5.99,1.54-8.56,2.68-.29,5.44-.45,8.25-.45s5.57.16,8.25.45c.96,4.21,1.74,9.2,2.25,14.87l2.86.9c.07.02.14.06.21.08-.45-5.48-1.18-10.74-2.17-15.44,5.4.82,10.45,2.21,14.96,4.06,1.97,4.25,3.45,8.99,4.32,14.07-4.84-.91-10.25-1.58-15.87-2,.89.71,1.48,1.73,1.56,2.88v.05c5.59.48,10.53,1.18,14.74,2.03.16,1.33.28,2.67.36,4.03.52.32.98.72,1.35,1.19.61.79,1.2,1.61,1.76,2.45,0-2.38-.13-4.71-.38-6.99,8.82,2.1,13.71,4.82,13.71,7.08,0,1.89-3.43,4.11-9.72,6.01.52.99.96,1.87,1.3,2.57,3.11-.96,5.72-2.07,7.65-3.32-1.08,3.71-3.28,7.19-6.36,10.29.26,1.21.49,2.43.55,3.25l.12.03c1.38-1.24,2.64-2.53,3.75-3.89-.79,2.1-1.75,4.13-2.85,6.07.12,1.09.22,2.13.3,2.95.33.2.65.45.93.76,4.65-7.22,7.33-15.68,7.33-24.72,0-26.4-22.83-47.88-50.9-47.88-25.55,0-46.75,17.8-50.35,40.9Z"/>
  <path class="cls-2" d="M273.81,54.59c.5.25.76.6.9.91.15.34.53.53.92.46l5.31-.92c.24-.04.44-.18.56-.37.12-.19.15-.43.08-.65-.81-2.32-3.1-8.74-4.51-11.5-.17-.33-.55-.5-.93-.42-2.22.47-9.73,2.08-12.23,3.06-.31.12-.51.4-.51.71-.02,1.57-.09,6.56-.07,9.31,0,.24.12.46.31.61.2.15.46.2.7.15,2.45-.52,8.62-1.76,9.46-1.35M279.05,41.86c-.09.12-.1.28-.04.41.96,1.9,3.86,7.79,5.31,12.56.12.39.44.7.86.82,2.22.63,9.63,2.62,18.57,3.51.11,0,.21-.03.28-.11.07-.08.08-.19.04-.29-.74-1.62-3.44-7.31-6.91-11.79-.23-.31-.55-.54-.93-.69-2.27-.88-10.99-4.15-16.79-4.6-.16-.01-.3.05-.39.17ZM297.07,64.14c-.55,0-.92.58-.83,1.3.08.72.59,1.3,1.14,1.3s.91-.58.83-1.3c-.09-.72-.6-1.3-1.14-1.3ZM264.52,60.69c-.2.03-.35.2-.34.39l.07,1.11c0,.1.06.2.15.27.08.06.2.09.31.08l1.58-.23c.19-.03.34-.18.34-.37v-1.1c0-.11-.05-.21-.14-.28-.09-.07-.2-.1-.32-.09l-1.65.23ZM276.55,70.97c.18.15.42.23.66.21l3.6-.23c.49-.03.86-.41.85-.87l-.05-2.76c0-.24-.12-.47-.31-.63-.19-.16-.45-.24-.7-.21l-3.73.39c-.48.05-.84.45-.81.91l.17,2.6c.01.23.12.44.31.59ZM308.9,80.62s-.45-5.79-.78-6.18c-.47-.54-1.52-.62-1.52-.62,0,0-.19-2.26-.47-4.77-4.22-1.1-20.34-2.64-20.87-2.69-.55-.06-1.91.23-1.91.23l.25,5.76-8.25.12c-2.59-5.62-8.56-4.34-8.56-4.34l-9.05,1.1,2.56-1.85c-.27-6.16-.16-21.95.46-22.59.68-.69,15.27-4.23,16.31-4.4.78-.13,2.46.03,3.25.12l-.17-2.29c-.04-.55-.43-1.03-.99-1.2l-22.35-7.03c-.46-.15-.98-.07-1.37.19-.4.27-.63.7-.63,1.16v21.02l-1.43.1v-22.09c0-.07-.04-.14-.1-.19-.06-.05-.14-.06-.19-.04l-38.47,14.41,36.42-10.7-36.92,14.25,36.56-9.41-36.97,13.25,36.9-8.62-37.32,12.44,37.18-7.94-37.62,11.74,37.11-6.84-37.55,10.63,37.58-6.25-38.03,10.01,37.94-5.4-38.4,9.22,38.29-4.42-38.29,7.1,29.59-1.73-25.57,3.24c-.94,2.76-1.26,8.18-1.26,8.18l2.22.08c0,3.49,3.36,4.32,3.36,4.32h6.32c3.2,0,3.94-4.94,3.94-4.94h1.4s.25,1.08,1.64,1.08,2.05-.69,2.05-.69h1.56c.33,2.93,1.98,4.48,3.45,4.48h5.58c3.12,0,3.69-6.71,3.69-6.71l6.73-.62-.08,2.47h3.47c.72,4.71,4.66,6.33,6.09,6.33h5.38c4.35,0,5.42-6.56,5.42-6.56h5.17s.41,6.18,8.29,6.18,7.06-8.26,7.06-8.26l11.9.15ZM274.75,37.42c0-.12.06-.23.16-.29.1-.07.23-.08.35-.05l2.58.78c.17.05.28.2.27.36v.41c-.02.12-.08.23-.18.29-.1.07-.23.09-.35.05l-2.57-.78c-.17-.05-.28-.2-.27-.36v-.41ZM268.9,35.57c0-.12.06-.23.17-.29.1-.07.23-.09.35-.05l2.57.78c.17.05.28.2.27.37v.41c-.02.12-.07.23-.18.29-.1.07-.23.09-.35.05l-2.58-.78c-.17-.05-.28-.2-.27-.36v-.41ZM263.06,33.72c0-.12.06-.23.17-.3.1-.07.23-.09.35-.05l2.58.78c.17.05.28.2.27.36v.41c-.02.12-.08.23-.18.29-.1.07-.23.09-.35.05l-2.57-.78c-.17-.05-.28-.2-.27-.36v-.41ZM220.22,85.58c-1.28,0-2.31-1.75-2.31-3.91,0-1.56.54-2.9,1.32-3.53-.25.62-.39,1.37-.39,2.18,0,2.16,1.03,3.91,2.31,3.91.35,0,.69-.14.99-.38-.41,1.04-1.12,1.73-1.92,1.73ZM257.2,32.28v-.41c.01-.12.08-.23.18-.29.1-.07.23-.09.35-.05l2.58.78c.17.05.28.2.27.36v.41c-.02.12-.08.23-.18.29-.1.07-.23.09-.35.05l-2.58-.78c-.17-.05-.28-.2-.27-.36ZM266.05,85.97c-2.28,0-4.12-2.47-4.12-5.53,0-2.21.97-4.11,2.36-4.99-.44.88-.7,1.94-.7,3.08,0,3.05,1.85,5.53,4.13,5.53.63,0,1.23-.2,1.76-.54-.74,1.48-2,2.45-3.42,2.45ZM304.96,71c.33-.04.66.41.73.99.08.59-.13,1.09-.47,1.13-.33.04-.66-.41-.74-.99-.07-.58.14-1.09.47-1.12ZM305.41,75.1l.35,2.86-1.11-.06-.35-2.87,1.11.08ZM303.3,70.78c.37-.04.73.45.82,1.1.08.65-.15,1.21-.52,1.25-.03,0-.06-.02-.09-.02l-.22-2.33s0,0,0,0ZM302.56,71.42c.02.11-.02.22-.11.31-.08.08-.2.12-.32.12l-9.68-.74c-.35-.03-.64-.28-.7-.61l10.81.9h0ZM302.49,70.13h0c.02.12-.02.23-.11.32-.08.08-.2.12-.33.11l-9.7-.91c-.36-.03-.64-.29-.7-.62l10.84,1.1ZM286.82,71.94c-.51,0-.94-.6-.95-1.35-.01-.76.38-1.38.9-1.39.51,0,.94.6.95,1.35.02.76-.39,1.38-.9,1.39ZM289.24,71.89c-.46,0-.85-.54-.87-1.23-.01-.69.35-1.26.82-1.26.47,0,.85.54.87,1.23.02.69-.35,1.26-.82,1.26ZM290.94,77.19l-.2-3.2,1.77.19.18,3.11-1.75-.1ZM292.37,72.51c-.25-.01-.45-.19-.49-.42l-.03-.16,10.78.71v.02c.02.11-.02.22-.1.31-.08.08-.2.12-.32.12l-9.84-.57ZM301.22,75.14l.29,3.27-4.33-.14-.25-3.46,4.29.33Z"/>
  <path class="cls-2" d="M210.7,87h101.32l-7.28,6.18c-24.85-5.24-94.04-3.92-94.04-3.92v-2.26Z"/>
  <path class="cls-5" d="M286.56,149.65h0c1.05,0,1.91.86,1.91,1.91v18.34c0,1.05-.86,1.91-1.91,1.91h0c-1.05,0-1.91-.86-1.91-1.91v-18.34c0-1.05.86-1.91,1.91-1.91"/>
  <path class="cls-6" d="M251.25,161.47c.94-.53,1.78-1.19,2.53-1.98.99-1.03,1.74-2.21,2.28-3.52.57-1.37.87-2.84.87-4.35,0-1.09-.87-1.99-1.92-1.99s-1.92.9-1.92,1.99c0,1.91-.69,3.72-2.02,5.07-1.29,1.37-3.03,2.13-4.86,2.13h-7.39v-7.19c0-1.09-.87-1.99-1.92-1.99s-1.89.9-1.89,1.99v18.32c0,1.12.84,1.99,1.89,1.99s1.92-.87,1.92-1.99v-7.16h8.5l6.88,8.43c.37.47.9.72,1.45.72.44,0,.87-.15,1.23-.46.81-.73.9-1.98.24-2.82l-5.86-7.18ZM218.81,161.19c-1.89,0-3.42,1.59-3.42,3.56s1.53,3.56,3.42,3.56,3.42-1.59,3.42-3.56-1.53-3.56-3.42-3.56ZM225.12,153.87c-1.12-2.56-3.6-4.24-6.31-4.24s-5.19,1.68-6.33,4.24l-6.67,15.25c-.45,1-.03,2.19.93,2.62.96.47,2.1.04,2.52-.97l6.7-15.28c.51-1.16,1.62-1.88,2.85-1.88s2.34.72,2.85,1.88l6.67,15.28c.33.72,1.02,1.15,1.75,1.15.27,0,.54-.06.78-.19.96-.43,1.38-1.62.96-2.62l-6.7-15.25ZM200.71,149.63c-1.08,0-1.92.9-1.92,1.99v13.72l-15.53-15.15c-.54-.56-1.34-.68-2.03-.37-.72.31-1.17,1.03-1.17,1.81v18.32c0,1.12.87,1.99,1.92,1.99s1.89-.87,1.89-1.99v-13.72l15.53,15.18c.36.35.84.53,1.32.53.24,0,.51-.06.75-.15.69-.31,1.14-1.04,1.14-1.84v-18.32c0-1.09-.83-1.99-1.89-1.99Z"/>
  <path class="cls-6" d="M278.94,167.96h-14.27v-16.34c0-1.09-.87-1.99-1.92-1.99s-1.89.9-1.89,1.99v18.32c0,1.12.84,1.99,1.89,1.99h16.19c1.05,0,1.92-.87,1.92-1.99s-.87-1.98-1.92-1.98"/>
  <path class="cls-4" d="M286.59,148.32c.81,0,1.44-.78,1.44-1.59s-.63-1.57-1.44-1.57-1.51.75-1.51,1.57.64,1.59,1.51,1.59"/>
  <path class="cls-6" d="M312.54,149.84c-.94-.5-2.08-.09-2.55.88l-2.71,5.54c-.96,1.97-2.85,3.18-4.95,3.18s-4.02-1.21-4.98-3.18l-2.67-5.54c-.49-.97-1.65-1.37-2.59-.88-.93.5-1.32,1.69-.83,2.69l2.7,5.53c.78,1.59,1.98,2.94,3.46,3.91.93.59,1.95,1,3.01,1.22v6.75c0,1.12.87,1.99,1.92,1.99s1.9-.87,1.9-1.99v-6.75c1.08-.22,2.07-.63,3-1.22,1.51-.97,2.67-2.31,3.49-3.91l2.67-5.53c.48-1,.12-2.19-.84-2.69"/>
  <path class="cls-6" d="M358.28,149.63h-18.74c-1.06,0-1.92.9-1.92,1.99s.87,1.98,1.92,1.98h7.45v16.34c0,1.12.87,1.99,1.92,1.99s1.9-.87,1.9-1.99v-16.34h7.47c1.05,0,1.89-.88,1.89-1.98s-.84-1.99-1.89-1.99M326.23,161.19c-1.89,0-3.42,1.59-3.42,3.56s1.53,3.56,3.42,3.56,3.42-1.59,3.42-3.56-1.53-3.56-3.42-3.56ZM332.54,153.87c-1.12-2.56-3.6-4.24-6.31-4.24s-5.19,1.68-6.33,4.24l-6.67,15.25c-.45,1-.03,2.19.93,2.62.96.47,2.1.04,2.52-.97l6.7-15.28c.51-1.16,1.62-1.88,2.85-1.88s2.34.72,2.85,1.88l6.67,15.28c.33.72,1.02,1.15,1.75,1.15.27,0,.54-.06.78-.19.96-.43,1.38-1.62.96-2.62l-6.7-15.25Z"/>
  <path class="cls-2" d="M90.16,115.27h-15.03c-2.09,0-3.77-2.04-3.77-4.46s1.69-4.51,3.77-4.51h19.76c1.6,0,2.91-1.51,2.91-3.39s-1.31-3.43-2.91-3.43h-19.76c-5.27,0-9.55,5.1-9.55,11.33s4.28,11.28,9.55,11.28h15.03c2.1,0,3.77,1.98,3.77,4.46s-1.67,4.45-3.77,4.45h-19.76c-1.6,0-2.91,1.51-2.91,3.4s1.31,3.43,2.91,3.43h19.76c5.28,0,9.55-5.04,9.55-11.27s-4.26-11.28-9.55-11.28"/>
  <path class="cls-2" d="M144.29,131h-21.59v-28.09c0-1.87-1.31-3.43-2.91-3.43s-2.86,1.55-2.86,3.43v31.48c0,1.93,1.28,3.43,2.86,3.43h24.5c1.58,0,2.9-1.49,2.9-3.43s-1.31-3.4-2.9-3.4"/>
  <path class="cls-2" d="M240.91,131h-3.36l-4.64-5.95c1.91-.53,3.67-1.72,5.09-3.38,2.09-2.48,3.22-5.69,3.22-9.2s-1.13-6.71-3.22-9.18c-2.09-2.42-4.82-3.81-7.77-3.81h-20.28c-1.58,0-2.86,1.55-2.86,3.43s1.28,3.39,2.86,3.39h20.28c2.86,0,5.22,2.79,5.22,6.17s-2.36,6.14-5.22,6.14h-20.28c-1.58,0-2.86,1.55-2.86,3.43v12.36c0,1.93,1.28,3.43,2.86,3.43s2.91-1.49,2.91-3.43v-8.92h12.46l8.81,11.28c.54.7,1.31,1.07,2.14,1.07h4.64c1.58,0,2.9-1.49,2.9-3.43s-1.31-3.4-2.9-3.4M200.82,99.8c-1.46-.76-3.14,0-3.83,1.72l-10.13,26.2c-.77,1.99-2.46,3.27-4.28,3.27s-3.54-1.28-4.32-3.27l-10.14-26.2c-.63-1.72-2.36-2.48-3.81-1.72-1.46.81-2.09,2.79-1.46,4.51l10.14,26.26c1.73,4.4,5.45,7.25,9.58,7.25s7.86-2.85,9.55-7.25l10.14-26.26c.63-1.72,0-3.7-1.46-4.51Z"/>
  <path class="cls-2" d="M308.99,116.71h-14c-1.58,0-2.9,1.55-2.9,3.44s1.31,3.44,2.9,3.44h11.09v4.67c-2.05,1.77-4.77,2.73-8.04,2.73h-2.32c-7.32,0-11.86-4.72-11.86-12.35s4.55-12.35,11.86-12.35h2.32c3.27,0,6.08.96,8.09,2.79,1.26,1.13,3.08.87,4.05-.64.95-1.51.72-3.65-.55-4.78-1.49-1.4-3.27-2.42-5.18-3.12-1.96-.7-4.14-1.07-6.4-1.07h-2.32c-5.32,0-9.82,1.93-13,5.59-1.55,1.77-2.73,3.87-3.5,6.23-.77,2.25-1.13,4.78-1.13,7.35s.36,5.1,1.13,7.41c.77,2.36,1.96,4.46,3.5,6.18,3.18,3.64,7.68,5.57,13,5.57h2.32c5.27,0,9.76-1.87,12.95-5.47.54-.65.86-1.57.86-2.48v-9.71c0-1.89-1.28-3.44-2.86-3.44"/>
  <path class="cls-2" d="M394.2,99.8c-1.46-.76-3.14,0-3.83,1.72l-10.13,26.2c-.77,1.99-2.46,3.27-4.28,3.27s-3.54-1.28-4.32-3.27l-10.14-26.2c-.63-1.72-2.36-2.48-3.81-1.72-1.46.81-2.09,2.79-1.46,4.51l10.14,26.26c1.73,4.4,5.45,7.25,9.58,7.25s7.86-2.85,9.55-7.25l10.14-26.26c.63-1.72,0-3.7-1.46-4.51M338.94,87.67c-2,0-3.63,1.93-3.63,4.29s1.64,4.29,3.63,4.29,3.63-1.89,3.63-4.29-1.64-4.29-3.63-4.29ZM329.76,87.67c-2.01,0-3.65,1.93-3.65,4.29s1.64,4.29,3.65,4.29,3.63-1.89,3.63-4.29-1.6-4.29-3.63-4.29ZM348.57,99.48c-1.58,0-2.91,1.55-2.91,3.43v15.74c0,5.97-2.68,12.35-10.27,12.35h-2.05c-7.54,0-10.22-6.38-10.22-12.35v-15.74c0-1.87-1.33-3.43-2.91-3.43s-2.91,1.55-2.91,3.43v15.74c0,2.57.36,5.05,1.04,7.25.68,2.38,1.73,4.46,3.09,6.24,2.91,3.7,7.05,5.68,11.9,5.68h2.05c4.91,0,9.04-1.98,11.96-5.68,1.37-1.78,2.41-3.87,3.09-6.24.68-2.19.99-4.67.99-7.25v-15.74c0-1.87-1.26-3.43-2.86-3.43Z"/>
  <path class="cls-2" d="M471.78,99.48c-1.64,0-2.91,1.55-2.91,3.43v23.58l-23.5-26.05c-.81-.96-2.04-1.17-3.08-.64-1.09.53-1.78,1.77-1.78,3.11v31.48c0,1.93,1.31,3.43,2.91,3.43s2.86-1.49,2.86-3.43v-23.58l23.5,26.09c.54.59,1.28.91,2,.91.36,0,.77-.11,1.13-.26,1.04-.53,1.73-1.78,1.73-3.17v-31.48c0-1.87-1.26-3.43-2.86-3.43M431.25,115.27h-28.37c-1.58,0-2.86,1.51-2.86,3.38s1.28,3.44,2.86,3.44h28.37c1.58,0,2.9-1.55,2.9-3.44s-1.31-3.38-2.9-3.38ZM431.25,131h-28.37c-1.58,0-2.86,1.51-2.86,3.4s1.28,3.43,2.86,3.43h28.37c1.58,0,2.9-1.49,2.9-3.43s-1.31-3.4-2.9-3.4ZM431.25,99.48h-28.37c-1.58,0-2.86,1.55-2.86,3.43s1.28,3.39,2.86,3.39h28.37c1.58,0,2.9-1.51,2.9-3.39s-1.31-3.43-2.9-3.43Z"/>
  <path class="cls-2" d="M253.5,99.15c1.37,0,2.44-1.34,2.44-2.73s-1.07-2.69-2.44-2.69-2.56,1.29-2.56,2.69,1.08,2.73,2.56,2.73"/>
  <path class="cls-3" d="M253.44,101.35h0c1.6,0,2.91,1.31,2.91,2.91v31.24c0,1.6-1.31,2.91-2.91,2.91h0c-1.6,0-2.91-1.31-2.91-2.91v-31.24c0-1.6,1.31-2.91,2.91-2.91"/>
  <path class="cls-2" d="M156.09,99.15c1.37,0,2.44-1.34,2.44-2.73s-1.07-2.69-2.44-2.69-2.56,1.29-2.56,2.69,1.08,2.73,2.56,2.73"/>
  <path class="cls-3" d="M156.04,101.35h0c1.6,0,2.91,1.31,2.91,2.91v31.24c0,1.6-1.31,2.91-2.91,2.91h0c-1.6,0-2.91-1.31-2.91-2.91v-31.24c0-1.6,1.31-2.91,2.91-2.91"/>
  <path class="cls-2" d="M108.37,99.15c1.37,0,2.44-1.34,2.44-2.73s-1.07-2.69-2.44-2.69-2.56,1.29-2.56,2.69,1.08,2.73,2.56,2.73"/>
  <path class="cls-3" d="M108.32,101.35h0c1.6,0,2.91,1.31,2.91,2.91v31.24c0,1.6-1.31,2.91-2.91,2.91h0c-1.6,0-2.91-1.31-2.91-2.91v-31.24c0-1.6,1.31-2.91,2.91-2.91"/>
  <text class="cls-1" transform="translate(169.14 200.81)"><tspan x="0" y="0">Güvenle Taşıyoruz</tspan></text>
</svg>